<svg version="1.1" xmlns="http://www.w3.org/2000/svg" xmlns:xlink="http://www.w3.org/1999/xlink" width="1005" height="877"><defs/><g><g/><g/><g/><g/><g/><g/><g/><g/><g/><g/><g/><g/><g/><g/><g/><g/><g/><g/><g/><g/><g/><g><rect fill="white" stroke="none" x="0" y="0" width="1005" height="877"/></g><g><text fill="black" stroke="none" font-family="sans-serif" font-size="10.5pt" font-style="normal" font-weight="normal" text-decoration="normal" x="408.42939466066673" y="15.0786492" text-anchor="start" dominant-baseline="alphabetic">Workshop 2: View Member</text></g><g><rect fill="rgb(235,240,244)" stroke="none" x="491.96743172133336" y="250.004003736" width="326.6391913333333" height="141.73930248000008"/><rect fill="rgb(235,240,244)" stroke="none" x="783.4231082546668" y="463.11557909600003" width="207.35703186666672" height="153.80222184000002"/><rect fill="rgb(244,235,239)" stroke="none" x="793.4755410546668" y="546.550771336" width="187.25216626666668" height="55.28838040000005"/></g><g><path fill="none" stroke="black" paint-order="fill stroke markers" d=" M 40.433105988 59.007780536 L 40.433105988 877.2758104560005" stroke-miterlimit="10" stroke-width="0.8377027333333333" stroke-dasharray="7.732640615384615,3.3508109333333334"/><path fill="none" stroke="black" paint-order="fill stroke markers" d=" M 339.2920262546667 59.007780536 L 339.2920262546667 877.2758104560005" stroke-miterlimit="10" stroke-width="0.8377027333333333" stroke-dasharray="7.732640615384615,3.3508109333333334"/><path fill="none" stroke="black" paint-order="fill stroke markers" d=" M 527.1509465213334 59.007780536 L 527.1509465213334 877.2758104560005" stroke-miterlimit="10" stroke-width="0.8377027333333333" stroke-dasharray="7.732640615384615,3.3508109333333334"/><path fill="none" stroke="black" paint-order="fill stroke markers" d=" M 833.6852722546668 59.007780536 L 833.6852722546668 877.2758104560005" stroke-miterlimit="10" stroke-width="0.8377027333333333" stroke-dasharray="7.732640615384615,3.3508109333333334"/><path fill="none" stroke="black" paint-order="fill stroke markers" d=" M 945.5441925213335 59.007780536 L 945.5441925213335 877.2758104560005" stroke-miterlimit="10" stroke-width="0.8377027333333333" stroke-dasharray="7.732640615384615,3.3508109333333334"/></g><g><path fill="none" stroke="none"/><g><path fill="white" stroke="black" paint-order="fill stroke markers" d=" M 5.026216400000003 31.866211976 L 75.839995576 31.866211976 L 75.839995576 59.007780536 L 5.026216400000003 59.007780536 L 5.026216400000003 31.866211976 Z" stroke-miterlimit="10" stroke-width="1.608389248" stroke-dasharray=""/></g><g><g/><text fill="black" stroke="none" font-family="sans-serif" font-size="7pt" font-style="normal" font-weight="normal" text-decoration="normal" x="15.933105988000001" y="48.955347736" text-anchor="start" dominant-baseline="alphabetic">Controller</text></g><path fill="none" stroke="none"/><g><path fill="white" stroke="black" paint-order="fill stroke markers" d=" M 308.8851366666667 31.866211976 L 369.6989158426667 31.866211976 L 369.6989158426667 59.007780536 L 308.8851366666667 59.007780536 L 308.8851366666667 31.866211976 Z" stroke-miterlimit="10" stroke-width="1.608389248" stroke-dasharray=""/></g><g><g/><text fill="black" stroke="none" font-family="sans-serif" font-size="7pt" font-style="normal" font-weight="normal" text-decoration="normal" x="319.7920262546667" y="48.955347736" text-anchor="start" dominant-baseline="alphabetic">Console</text></g><path fill="none" stroke="none"/><g><path fill="white" stroke="black" paint-order="fill stroke markers" d=" M 477.74405693333335 31.866211976 L 576.5578361093334 31.866211976 L 576.5578361093334 59.007780536 L 477.74405693333335 59.007780536 L 477.74405693333335 31.866211976 Z" stroke-miterlimit="10" stroke-width="1.608389248" stroke-dasharray=""/></g><g><g/><text fill="black" stroke="none" font-family="sans-serif" font-size="7pt" font-style="normal" font-weight="normal" text-decoration="normal" x="488.65094652133337" y="48.955347736" text-anchor="start" dominant-baseline="alphabetic">ConsoleHandler</text></g><path fill="none" stroke="none"/><g><path fill="white" stroke="black" paint-order="fill stroke markers" d=" M 802.7783826666667 31.866211976 L 864.5921618426668 31.866211976 L 864.5921618426668 59.007780536 L 802.7783826666667 59.007780536 L 802.7783826666667 31.866211976 Z" stroke-miterlimit="10" stroke-width="1.608389248" stroke-dasharray=""/></g><g><g/><text fill="black" stroke="none" font-family="sans-serif" font-size="7pt" font-style="normal" font-weight="normal" text-decoration="normal" x="813.6852722546668" y="48.955347736" text-anchor="start" dominant-baseline="alphabetic">Registry</text></g><path fill="none" stroke="none"/><g><path fill="white" stroke="black" paint-order="fill stroke markers" d=" M 915.1373029333334 31.866211976 L 975.9510821093335 31.866211976 L 975.9510821093335 59.007780536 L 915.1373029333334 59.007780536 L 915.1373029333334 31.866211976 Z" stroke-miterlimit="10" stroke-width="1.608389248" stroke-dasharray=""/></g><g><g/><text fill="black" stroke="none" font-family="sans-serif" font-size="7pt" font-style="normal" font-weight="normal" text-decoration="normal" x="926.0441925213335" y="48.955347736" text-anchor="start" dominant-baseline="alphabetic">Member</text></g></g><g><path fill="white" stroke="black" paint-order="fill stroke markers" d=" M 35.406889588 102.233241576 L 45.459322388000004 102.233241576 L 45.459322388000004 842.0922956560005 L 35.406889588 842.0922956560005 L 35.406889588 102.233241576" stroke-miterlimit="10" stroke-width="0.8377027333333333" stroke-dasharray=""/><path fill="white" stroke="black" paint-order="fill stroke markers" d=" M 334.2658098546667 168.579298056 L 344.31824265466673 168.579298056 L 344.31824265466673 196.726109896 L 334.2658098546667 196.726109896 L 334.2658098546667 168.579298056" stroke-miterlimit="10" stroke-width="0.8377027333333333" stroke-dasharray=""/><path fill="white" stroke="black" paint-order="fill stroke markers" d=" M 522.1247301213334 196.726109896 L 532.1771629213333 196.726109896 L 532.1771629213333 419.89011805600006 L 522.1247301213334 419.89011805600006 L 522.1247301213334 196.726109896" stroke-miterlimit="10" stroke-width="0.8377027333333333" stroke-dasharray=""/><path fill="white" stroke="black" paint-order="fill stroke markers" d=" M 828.6590558546668 448.03692989600006 L 838.7114886546667 448.03692989600006 L 838.7114886546667 645.0646127760001 L 828.6590558546668 645.0646127760001 L 828.6590558546668 448.03692989600006" stroke-miterlimit="10" stroke-width="0.8377027333333333" stroke-dasharray=""/><path fill="white" stroke="black" paint-order="fill stroke markers" d=" M 940.5179761213335 503.32531029600005 L 950.5704089213334 503.32531029600005 L 950.5704089213334 531.472122136 L 940.5179761213335 531.472122136 L 940.5179761213335 503.32531029600005" stroke-miterlimit="10" stroke-width="0.8377027333333333" stroke-dasharray=""/><path fill="white" stroke="black" paint-order="fill stroke markers" d=" M 940.5179761213335 673.2114246160002 L 950.5704089213334 673.2114246160002 L 950.5704089213334 701.3582364560002 L 940.5179761213335 701.3582364560002 L 940.5179761213335 673.2114246160002" stroke-miterlimit="10" stroke-width="0.8377027333333333" stroke-dasharray=""/><path fill="white" stroke="black" paint-order="fill stroke markers" d=" M 940.5179761213335 729.5050482960003 L 950.5704089213334 729.5050482960003 L 950.5704089213334 757.6518601360003 L 940.5179761213335 757.6518601360003 L 940.5179761213335 729.5050482960003" stroke-miterlimit="10" stroke-width="0.8377027333333333" stroke-dasharray=""/><path fill="white" stroke="black" paint-order="fill stroke markers" d=" M 940.5179761213335 785.7986719760004 L 950.5704089213334 785.7986719760004 L 950.5704089213334 813.9454838160004 L 940.5179761213335 813.9454838160004 L 940.5179761213335 785.7986719760004" stroke-miterlimit="10" stroke-width="0.8377027333333333" stroke-dasharray=""/><g><g><rect fill="white" stroke="none" x="57.354701201333334" y="79.112646136" width="48.01572984" height="13.06816264"/></g><text fill="black" stroke="none" font-family="sans-serif" font-size="7pt" font-style="normal" font-weight="normal" text-decoration="normal" x="58.86256612133334" y="88.159835656" text-anchor="start" dominant-baseline="alphabetic">m_view()</text></g><g><path fill="none" stroke="black" paint-order="fill stroke markers" d=" M 40.433105988 92.18080877599999 L 85.669053588 92.18080877599999 L 85.669053588 102.233241576 L 47.13472785466667 102.233241576" stroke-miterlimit="10" stroke-width="0.8377027333333333" stroke-dasharray=""/><g transform="translate(45.459322388000004,102.233241576) translate(-45.459322388000004,-102.233241576)"><path fill="black" stroke="none" paint-order="stroke fill markers" d=" M 53.836349721333335 98.04472790933333 L 45.459322388000004 102.233241576 L 53.836349721333335 106.42175524266666 Z"/></g></g><g><g><rect fill="white" stroke="none" x="57.354701201333334" y="117.311890776" width="41.01572984" height="13.06816264"/></g><text fill="black" stroke="none" font-family="sans-serif" font-size="7pt" font-style="normal" font-weight="normal" text-decoration="normal" x="58.86256612133334" y="126.359080296" text-anchor="start" dominant-baseline="alphabetic">m_get()</text></g><g><path fill="none" stroke="black" paint-order="fill stroke markers" d=" M 45.459322388000004 130.380053416 L 85.669053588 130.380053416 L 85.669053588 140.432486216 L 47.13472785466667 140.432486216" stroke-miterlimit="10" stroke-width="0.8377027333333333" stroke-dasharray=""/><g transform="translate(45.459322388000004,140.432486216) translate(-45.459322388000004,-140.432486216)"><path fill="black" stroke="none" paint-order="stroke fill markers" d=" M 53.836349721333335 136.24397254933334 L 45.459322388000004 140.432486216 L 53.836349721333335 144.62099988266667 Z"/></g></g><g><g><rect fill="white" stroke="none" x="131.85470120133334" y="155.511135416" width="116.01572984" height="13.06816264"/></g><text fill="black" stroke="none" font-family="sans-serif" font-size="7pt" font-style="normal" font-weight="normal" text-decoration="normal" x="133.36256612133334" y="164.558324936" text-anchor="start" dominant-baseline="alphabetic">console.m_getInputID()</text></g><g><path fill="none" stroke="black" paint-order="fill stroke markers" d=" M 45.459322388000004 168.579298056 L 332.590404388 168.579298056" stroke-miterlimit="10" stroke-width="0.8377027333333333" stroke-dasharray=""/><g transform="translate(334.2658098546667,168.579298056) translate(-334.2658098546667,-168.579298056)"><path fill="black" stroke="none" paint-order="stroke fill markers" d=" M 325.8887825213334 164.39078438933333 L 334.2658098546667 168.579298056 L 325.8887825213334 172.76781172266666 Z"/></g></g><g><g><rect fill="white" stroke="none" x="356.2136214680001" y="183.657947256" width="154.01572984" height="13.06816264"/></g><text fill="black" stroke="none" font-family="sans-serif" font-size="7pt" font-style="normal" font-weight="normal" text-decoration="normal" x="357.7214863880001" y="192.705136776" text-anchor="start" dominant-baseline="alphabetic">printTryAgainInteger(message)</text></g><g><path fill="none" stroke="black" paint-order="fill stroke markers" d=" M 344.31824265466673 196.726109896 L 520.4493246546667 196.726109896" stroke-miterlimit="10" stroke-width="0.8377027333333333" stroke-dasharray=""/><g transform="translate(522.1247301213334,196.726109896) translate(-522.1247301213334,-196.726109896)"><path fill="black" stroke="none" paint-order="stroke fill markers" d=" M 513.7477027880001 192.53759622933333 L 522.1247301213334 196.726109896 L 513.7477027880001 200.91462356266666 Z"/></g></g><g><g><rect fill="white" stroke="none" x="544.0725417346666" y="211.804759096" width="249.01572984" height="13.06816264"/></g><text fill="black" stroke="none" font-family="sans-serif" font-size="7pt" font-style="normal" font-weight="normal" text-decoration="normal" x="545.5804066546666" y="220.851948616" text-anchor="start" dominant-baseline="alphabetic">print(format_FirstCharacter_Print + " " + message)</text></g><g><path fill="none" stroke="black" paint-order="fill stroke markers" d=" M 532.1771629213333 224.872921736 L 572.3868941213333 224.872921736 L 572.3868941213333 234.925354536 L 533.852568388 234.925354536" stroke-miterlimit="10" stroke-width="0.8377027333333333" stroke-dasharray=""/><g transform="translate(532.1771629213333,234.925354536) translate(-532.1771629213333,-234.925354536)"><path fill="black" stroke="none" paint-order="stroke fill markers" d=" M 540.5541902546667 230.73684086933332 L 532.1771629213333 234.925354536 L 540.5541902546667 239.11386820266665 Z"/></g></g><g><g><rect fill="rgb(235,240,244)" stroke="none" x="544.0725417346666" y="277.145572296" width="89.01572984" height="13.06816264"/></g><text fill="black" stroke="none" font-family="sans-serif" font-size="7pt" font-style="normal" font-weight="normal" text-decoration="normal" x="545.5804066546666" y="286.19276181600003" text-anchor="start" dominant-baseline="alphabetic">scan.hasNextInt()</text></g><g><path fill="none" stroke="black" paint-order="fill stroke markers" d=" M 532.1771629213333 290.213734936 L 572.3868941213333 290.213734936 L 572.3868941213333 300.266167736 L 533.852568388 300.266167736" stroke-miterlimit="10" stroke-width="0.8377027333333333" stroke-dasharray=""/><g transform="translate(532.1771629213333,300.266167736) translate(-532.1771629213333,-300.266167736)"><path fill="black" stroke="none" paint-order="stroke fill markers" d=" M 540.5541902546667 296.07765406933333 L 532.1771629213333 300.266167736 L 540.5541902546667 304.45468140266667 Z"/></g></g><g><g><rect fill="rgb(235,240,244)" stroke="none" x="544.0725417346666" y="315.34481693600003" width="134.01572984" height="13.06816264"/></g><text fill="black" stroke="none" font-family="sans-serif" font-size="7pt" font-style="normal" font-weight="normal" text-decoration="normal" x="545.5804066546666" y="324.39200645600005" text-anchor="start" dominant-baseline="alphabetic">printInvalidInputTryAgain()</text></g><g><path fill="none" stroke="black" paint-order="fill stroke markers" d=" M 532.1771629213333 328.412979576 L 572.3868941213333 328.412979576 L 572.3868941213333 338.465412376 L 533.852568388 338.465412376" stroke-miterlimit="10" stroke-width="0.8377027333333333" stroke-dasharray=""/><g transform="translate(532.1771629213333,338.465412376) translate(-532.1771629213333,-338.465412376)"><path fill="black" stroke="none" paint-order="stroke fill markers" d=" M 540.5541902546667 334.27689870933335 L 532.1771629213333 338.465412376 L 540.5541902546667 342.6539260426667 Z"/></g></g><g><g><rect fill="rgb(235,240,244)" stroke="none" x="544.0725417346666" y="353.54406157600005" width="271.01572984" height="13.06816264"/></g><text fill="black" stroke="none" font-family="sans-serif" font-size="7pt" font-style="normal" font-weight="normal" text-decoration="normal" x="545.5804066546666" y="362.59125109600006" text-anchor="start" dominant-baseline="alphabetic">printLineError(format_FirstCharacter_Print + message);</text></g><g><path fill="none" stroke="black" paint-order="fill stroke markers" d=" M 532.1771629213333 366.612224216 L 572.3868941213333 366.612224216 L 572.3868941213333 376.66465701600004 L 533.852568388 376.66465701600004" stroke-miterlimit="10" stroke-width="0.8377027333333333" stroke-dasharray=""/><g transform="translate(532.1771629213333,376.66465701600004) translate(-532.1771629213333,-376.66465701600004)"><path fill="black" stroke="none" paint-order="stroke fill markers" d=" M 540.5541902546667 372.47614334933337 L 532.1771629213333 376.66465701600004 L 540.5541902546667 380.8531706826667 Z"/></g></g><g><g><rect fill="white" stroke="none" x="261.2841613346667" y="406.82195541600004" width="45.01572984" height="13.06816264"/></g><text fill="black" stroke="none" font-family="sans-serif" font-size="7pt" font-style="normal" font-weight="normal" text-decoration="normal" x="262.79202625466667" y="415.86914493600005" text-anchor="start" dominant-baseline="alphabetic">return id</text></g><g><path fill="none" stroke="black" paint-order="fill stroke markers" d=" M 522.1247301213334 419.89011805600006 L 47.13472785466667 419.89011805600006" stroke-miterlimit="10" stroke-width="0.8377027333333333" stroke-dasharray="4.02097312"/><g transform="translate(45.459322388000004,419.89011805600006) translate(-45.459322388000004,-419.89011805600006)"><path fill="black" stroke="none" paint-order="stroke fill markers" d=" M 53.836349721333335 415.7016043893334 L 45.459322388000004 419.89011805600006 L 53.836349721333335 424.0786317226667 Z"/></g></g><g><g><rect fill="white" stroke="none" x="392.0513242013334" y="434.96876725600004" width="90.01572984" height="13.06816264"/></g><text fill="black" stroke="none" font-family="sans-serif" font-size="7pt" font-style="normal" font-weight="normal" text-decoration="normal" x="393.55918912133336" y="444.01595677600005" text-anchor="start" dominant-baseline="alphabetic">registry.m_get(id)</text></g><g><path fill="none" stroke="black" paint-order="fill stroke markers" d=" M 45.459322388000004 448.03692989600006 L 826.9836503880001 448.03692989600006" stroke-miterlimit="10" stroke-width="0.8377027333333333" stroke-dasharray=""/><g transform="translate(828.6590558546668,448.03692989600006) translate(-828.6590558546668,-448.03692989600006)"><path fill="black" stroke="none" paint-order="stroke fill markers" d=" M 820.2820285213335 443.8484162293334 L 828.6590558546668 448.03692989600006 L 820.2820285213335 452.2254435626667 Z"/></g></g><g><g><rect fill="rgb(235,240,244)" stroke="none" x="850.6068674680001" y="490.25714765600003" width="78.01572984" height="13.06816264"/></g><text fill="black" stroke="none" font-family="sans-serif" font-size="7pt" font-style="normal" font-weight="normal" text-decoration="normal" x="852.1147323880001" y="499.30433717600005" text-anchor="start" dominant-baseline="alphabetic">member.getId()</text></g><g><path fill="none" stroke="black" paint-order="fill stroke markers" d=" M 838.7114886546667 503.32531029600005 L 938.8425706546668 503.32531029600005" stroke-miterlimit="10" stroke-width="0.8377027333333333" stroke-dasharray=""/><g transform="translate(940.5179761213335,503.32531029600005) translate(-940.5179761213335,-503.32531029600005)"><path fill="black" stroke="none" paint-order="stroke fill markers" d=" M 932.1409487880002 499.1367966293334 L 940.5179761213335 503.32531029600005 L 932.1409487880002 507.5138239626667 Z"/></g></g><g><g><rect fill="rgb(235,240,244)" stroke="none" x="867.1068674680001" y="518.4039594960001" width="45.01572984" height="13.06816264"/></g><text fill="black" stroke="none" font-family="sans-serif" font-size="7pt" font-style="normal" font-weight="normal" text-decoration="normal" x="868.6147323880001" y="527.4511490160002" text-anchor="start" dominant-baseline="alphabetic">return id</text></g><g><path fill="none" stroke="black" paint-order="fill stroke markers" d=" M 940.5179761213335 531.472122136 L 840.3868941213334 531.472122136" stroke-miterlimit="10" stroke-width="0.8377027333333333" stroke-dasharray="4.02097312"/><g transform="translate(838.7114886546667,531.472122136) translate(-838.7114886546667,-531.472122136)"><path fill="black" stroke="none" paint-order="stroke fill markers" d=" M 847.088515988 527.2836084693333 L 838.7114886546667 531.472122136 L 847.088515988 535.6606358026668 Z"/></g></g><g><g><rect fill="rgb(244,235,239)" stroke="none" x="854.119975668" y="573.6923398960001" width="76.01572984" height="13.06816264"/></g><text fill="black" stroke="none" font-family="sans-serif" font-size="7pt" font-style="normal" font-weight="normal" text-decoration="normal" x="855.627840588" y="582.7395294160002" text-anchor="start" dominant-baseline="alphabetic">return member</text></g><g><path fill="none" stroke="black" paint-order="fill stroke markers" d=" M 945.5441925213335 586.7605025360001 L 840.3868941213334 586.7605025360001" stroke-miterlimit="10" stroke-width="0.8377027333333333" stroke-dasharray="4.02097312"/><g transform="translate(838.7114886546667,586.7605025360001) translate(-838.7114886546667,-586.7605025360001)"><path fill="black" stroke="none" paint-order="stroke fill markers" d=" M 847.088515988 582.5719888693334 L 838.7114886546667 586.7605025360001 L 847.088515988 590.9490162026668 Z"/></g></g><g><g><rect fill="white" stroke="none" x="457.49389253466677" y="631.9964501360001" width="76.01572984" height="13.06816264"/></g><text fill="black" stroke="none" font-family="sans-serif" font-size="7pt" font-style="normal" font-weight="normal" text-decoration="normal" x="459.00175745466674" y="641.0436396560002" text-anchor="start" dominant-baseline="alphabetic">return member</text></g><g><path fill="none" stroke="black" paint-order="fill stroke markers" d=" M 945.5441925213335 645.0646127760001 L 47.13472785466667 645.0646127760001" stroke-miterlimit="10" stroke-width="0.8377027333333333" stroke-dasharray="4.02097312"/><g transform="translate(45.459322388000004,645.0646127760001) translate(-45.459322388000004,-645.0646127760001)"><path fill="black" stroke="none" paint-order="stroke fill markers" d=" M 53.836349721333335 640.8760991093334 L 45.459322388000004 645.0646127760001 L 53.836349721333335 649.2531264426668 Z"/></g></g><g><g><rect fill="white" stroke="none" x="444.48078433466674" y="660.1432619760002" width="97.01572984" height="13.06816264"/></g><text fill="black" stroke="none" font-family="sans-serif" font-size="7pt" font-style="normal" font-weight="normal" text-decoration="normal" x="445.9886492546667" y="669.1904514960003" text-anchor="start" dominant-baseline="alphabetic">member.getName()</text></g><g><path fill="none" stroke="black" paint-order="fill stroke markers" d=" M 45.459322388000004 673.2114246160002 L 938.8425706546668 673.2114246160002" stroke-miterlimit="10" stroke-width="0.8377027333333333" stroke-dasharray=""/><g transform="translate(940.5179761213335,673.2114246160002) translate(-940.5179761213335,-673.2114246160002)"><path fill="black" stroke="none" paint-order="stroke fill markers" d=" M 932.1409487880002 669.0229109493334 L 940.5179761213335 673.2114246160002 L 932.1409487880002 677.3999382826669 Z"/></g></g><g><g><rect fill="white" stroke="none" x="461.48078433466674" y="688.2900738160002" width="63.01572984" height="13.06816264"/></g><text fill="black" stroke="none" font-family="sans-serif" font-size="7pt" font-style="normal" font-weight="normal" text-decoration="normal" x="462.9886492546667" y="697.3372633360003" text-anchor="start" dominant-baseline="alphabetic">return name</text></g><g><path fill="none" stroke="black" paint-order="fill stroke markers" d=" M 940.5179761213335 701.3582364560002 L 47.13472785466667 701.3582364560002" stroke-miterlimit="10" stroke-width="0.8377027333333333" stroke-dasharray=""/><g transform="translate(45.459322388000004,701.3582364560002) translate(-45.459322388000004,-701.3582364560002)"><path fill="black" stroke="none" paint-order="stroke fill markers" d=" M 53.836349721333335 697.1697227893335 L 45.459322388000004 701.3582364560002 L 53.836349721333335 705.5467501226669 Z"/></g></g><g><g><rect fill="white" stroke="none" x="404.98078433466674" y="716.4368856560003" width="176.01572984" height="13.06816264"/></g><text fill="black" stroke="none" font-family="sans-serif" font-size="7pt" font-style="normal" font-weight="normal" text-decoration="normal" x="406.4886492546667" y="725.4840751760004" text-anchor="start" dominant-baseline="alphabetic">member.getSocialSecurityNumber()</text></g><g><path fill="none" stroke="black" paint-order="fill stroke markers" d=" M 45.459322388000004 729.5050482960003 L 938.8425706546668 729.5050482960003" stroke-miterlimit="10" stroke-width="0.8377027333333333" stroke-dasharray=""/><g transform="translate(940.5179761213335,729.5050482960003) translate(-940.5179761213335,-729.5050482960003)"><path fill="black" stroke="none" paint-order="stroke fill markers" d=" M 932.1409487880002 725.3165346293335 L 940.5179761213335 729.5050482960003 L 932.1409487880002 733.693561962667 Z"/></g></g><g><g><rect fill="white" stroke="none" x="421.98078433466674" y="744.5836974960004" width="142.01572984" height="13.06816264"/></g><text fill="black" stroke="none" font-family="sans-serif" font-size="7pt" font-style="normal" font-weight="normal" text-decoration="normal" x="423.4886492546667" y="753.6308870160004" text-anchor="start" dominant-baseline="alphabetic">return socialSecurityNumber</text></g><g><path fill="none" stroke="black" paint-order="fill stroke markers" d=" M 940.5179761213335 757.6518601360003 L 47.13472785466667 757.6518601360003" stroke-miterlimit="10" stroke-width="0.8377027333333333" stroke-dasharray=""/><g transform="translate(45.459322388000004,757.6518601360003) translate(-45.459322388000004,-757.6518601360003)"><path fill="black" stroke="none" paint-order="stroke fill markers" d=" M 53.836349721333335 753.4633464693336 L 45.459322388000004 757.6518601360003 L 53.836349721333335 761.840373802667 Z"/></g></g><g><g><rect fill="white" stroke="none" x="453.98078433466674" y="772.7305093360004" width="78.01572984" height="13.06816264"/></g><text fill="black" stroke="none" font-family="sans-serif" font-size="7pt" font-style="normal" font-weight="normal" text-decoration="normal" x="455.4886492546667" y="781.7776988560005" text-anchor="start" dominant-baseline="alphabetic">member.getId()</text></g><g><path fill="none" stroke="black" paint-order="fill stroke markers" d=" M 45.459322388000004 785.7986719760004 L 938.8425706546668 785.7986719760004" stroke-miterlimit="10" stroke-width="0.8377027333333333" stroke-dasharray=""/><g transform="translate(940.5179761213335,785.7986719760004) translate(-940.5179761213335,-785.7986719760004)"><path fill="black" stroke="none" paint-order="stroke fill markers" d=" M 932.1409487880002 781.6101583093337 L 940.5179761213335 785.7986719760004 L 932.1409487880002 789.9871856426671 Z"/></g></g><g><g><rect fill="white" stroke="none" x="470.48078433466674" y="800.8773211760005" width="45.01572984" height="13.06816264"/></g><text fill="black" stroke="none" font-family="sans-serif" font-size="7pt" font-style="normal" font-weight="normal" text-decoration="normal" x="471.9886492546667" y="809.9245106960005" text-anchor="start" dominant-baseline="alphabetic">return id</text></g><g><path fill="none" stroke="black" paint-order="fill stroke markers" d=" M 940.5179761213335 813.9454838160004 L 47.13472785466667 813.9454838160004" stroke-miterlimit="10" stroke-width="0.8377027333333333" stroke-dasharray=""/><g transform="translate(45.459322388000004,813.9454838160004) translate(-45.459322388000004,-813.9454838160004)"><path fill="black" stroke="none" paint-order="stroke fill markers" d=" M 53.836349721333335 809.7569701493337 L 45.459322388000004 813.9454838160004 L 53.836349721333335 818.1339974826672 Z"/></g></g><g><g><rect fill="white" stroke="none" x="59.867809401333375" y="829.0241330160005" width="265.01572984" height="13.06816264"/></g><text fill="black" stroke="none" font-family="sans-serif" font-size="7pt" font-style="normal" font-weight="normal" text-decoration="normal" x="61.37567432133338" y="838.0713225360006" text-anchor="start" dominant-baseline="alphabetic">console.m_printData(name, socialSecurityNumber, id)</text></g><g><path fill="none" stroke="black" paint-order="fill stroke markers" d=" M 45.459322388000004 842.0922956560005 L 337.61662078800003 842.0922956560005" stroke-miterlimit="10" stroke-width="0.8377027333333333" stroke-dasharray=""/><g transform="translate(339.2920262546667,842.0922956560005) translate(-339.2920262546667,-842.0922956560005)"><path fill="black" stroke="none" paint-order="stroke fill markers" d=" M 330.9149989213334 837.9037819893338 L 339.2920262546667 842.0922956560005 L 330.9149989213334 846.2808093226672 Z"/></g></g><g><g/><path fill="none" stroke="black" paint-order="fill stroke markers" d=" M 491.96743172133336 250.004003736 L 818.6066230546667 250.004003736 L 818.6066230546667 391.74330621600006 L 491.96743172133336 391.74330621600006 L 491.96743172133336 250.004003736 Z" stroke-miterlimit="10" stroke-width="1.4360618285714286" stroke-dasharray=""/><path fill="#9db5c7" stroke="black" paint-order="fill stroke markers" d=" M 491.96743172133336 250.004003736 L 491.96743172133336 262.066923096 L 535.0722973213334 262.066923096 L 541.1037570013334 256.03546341599997 L 541.1037570013334 250.004003736 L 491.96743172133336 250.004003736" stroke-miterlimit="10" stroke-width="1.4360618285714286" stroke-dasharray=""/><text fill="white" stroke="none" font-family="sans-serif" font-size="5.6000000000000005pt" font-style="normal" font-weight="bold" text-decoration="normal" x="502.0198645213334" y="258.045949976" text-anchor="start" dominant-baseline="alphabetic">while</text><text fill="black" stroke="none" font-family="sans-serif" font-size="5.6000000000000005pt" font-style="normal" font-weight="bold" text-decoration="normal" x="551.1561898013334" y="258.045949976" text-anchor="start" dominant-baseline="alphabetic">[!scan.hasNextInt()]</text></g><g><g/><path fill="none" stroke="black" paint-order="fill stroke markers" d=" M 783.4231082546668 463.11557909600003 L 990.7801401213335 463.11557909600003 L 990.7801401213335 616.917800936 L 783.4231082546668 616.917800936 L 783.4231082546668 463.11557909600003 Z" stroke-miterlimit="10" stroke-width="1.4360618285714286" stroke-dasharray=""/><path fill="#9db5c7" stroke="black" paint-order="fill stroke markers" d=" M 783.4231082546668 463.11557909600003 L 783.4231082546668 475.17849845600006 L 815.5279738546668 475.17849845600006 L 821.5594335346668 469.14703877600004 L 821.5594335346668 463.11557909600003 L 783.4231082546668 463.11557909600003" stroke-miterlimit="10" stroke-width="1.4360618285714286" stroke-dasharray=""/><text fill="white" stroke="none" font-family="sans-serif" font-size="5.6000000000000005pt" font-style="normal" font-weight="bold" text-decoration="normal" x="793.4755410546668" y="471.15752533600005" text-anchor="start" dominant-baseline="alphabetic">for</text><text fill="black" stroke="none" font-family="sans-serif" font-size="5.6000000000000005pt" font-style="normal" font-weight="bold" text-decoration="normal" x="831.6118663346668" y="471.15752533600005" text-anchor="start" dominant-baseline="alphabetic">[Member member : members]</text></g><g><g/><path fill="none" stroke="black" paint-order="fill stroke markers" d=" M 793.4755410546668 546.550771336 L 980.7277073213335 546.550771336 L 980.7277073213335 601.8391517360001 L 793.4755410546668 601.8391517360001 L 793.4755410546668 546.550771336 Z" stroke-miterlimit="10" stroke-width="1.4360618285714286" stroke-dasharray=""/><path fill="#c79daf" stroke="black" paint-order="fill stroke markers" d=" M 793.4755410546668 546.550771336 L 793.4755410546668 558.613690696 L 819.5804066546668 558.613690696 L 825.6118663346668 552.582231016 L 825.6118663346668 546.550771336 L 793.4755410546668 546.550771336" stroke-miterlimit="10" stroke-width="1.4360618285714286" stroke-dasharray=""/><text fill="white" stroke="none" font-family="sans-serif" font-size="5.6000000000000005pt" font-style="normal" font-weight="bold" text-decoration="normal" x="803.5279738546668" y="554.592717576" text-anchor="start" dominant-baseline="alphabetic">if</text><text fill="black" stroke="none" font-family="sans-serif" font-size="5.6000000000000005pt" font-style="normal" font-weight="bold" text-decoration="normal" x="835.6642991346669" y="554.592717576" text-anchor="start" dominant-baseline="alphabetic">[member.getId() == id]</text></g></g><g/><g/><g/><g/><g/></g></svg>